<svg xmlns="http://www.w3.org/2000/svg" width="800" height="800" viewBox="0 0 463 463"><path d="M312.61 288.539a23.514 23.514 0 0 0-17.328-18.896L255 259.285v-14.141c14.906-10.309 24-27.417 24-45.644v-24c0-26.191-21.309-47.5-47.5-47.5h-16c-26.191 0-47.5 21.309-47.5 47.5v24c0 18.227 9.094 35.335 24 45.644v14.141l-40.282 10.358a23.514 23.514 0 0 0-17.328 18.896l-3.183 19.098c-1.138 6.827.775 13.771 5.249 19.053s11.01 8.311 17.931 8.311h138.226a23.457 23.457 0 0 0 17.931-8.311 23.457 23.457 0 0 0 5.249-19.053l-3.183-19.098zm-13.511 28.455a8.376 8.376 0 0 1-6.486 3.006H154.387c-2.54 0-4.844-1.067-6.486-3.006-1.642-1.938-2.316-4.386-1.898-6.892l3.183-19.098a8.502 8.502 0 0 1 6.267-6.834l45.915-11.807a7.5 7.5 0 0 0 5.632-7.264v-24.074a7.5 7.5 0 0 0-3.741-6.49C190.763 227.297 183 213.872 183 199.5v-24c0-17.92 14.58-32.5 32.5-32.5h16c17.92 0 32.5 14.58 32.5 32.5v24c0 14.372-7.763 27.797-20.259 35.036a7.5 7.5 0 0 0-3.741 6.49V265.1a7.5 7.5 0 0 0 5.632 7.264l45.915 11.807a8.504 8.504 0 0 1 6.267 6.834l3.183 19.098c.418 2.505-.257 4.953-1.898 6.891z"/><path d="M407.5 40H399v-8.5C399 14.131 384.869 0 367.5 0h-288C62.131 0 48 14.131 48 31.5V64h-8.5a7.5 7.5 0 0 0 0 15H48v25h-8.5a7.5 7.5 0 0 0 0 15H48v25h-8.5a7.5 7.5 0 0 0 0 15H48v25h-8.5a7.5 7.5 0 0 0 0 15H48v25h-8.5a7.5 7.5 0 0 0 0 15H48v25h-8.5a7.5 7.5 0 0 0 0 15H48v25h-8.5a7.5 7.5 0 0 0 0 15H48v25h-8.5a7.5 7.5 0 0 0 0 15H48v25h-8.5a7.5 7.5 0 0 0 0 15H48v32.5c0 17.369 14.131 31.5 31.5 31.5h288c17.369 0 31.5-14.131 31.5-31.5V295h8.5c12.958 0 23.5-10.542 23.5-23.5v-208c0-12.958-10.542-23.5-23.5-23.5zM399 151h17v33h-17v-33zm0-15v-33h17v33h-17zm0 63h17v33h-17v-33zm8.5-144c4.687 0 8.5 3.813 8.5 8.5V88h-17V55h8.5zM384 431.5c0 9.098-7.402 16.5-16.5 16.5h-288c-9.098 0-16.5-7.402-16.5-16.5V399h8.5a7.5 7.5 0 0 0 0-15H63v-25h8.5a7.5 7.5 0 0 0 0-15H63v-25h8.5a7.5 7.5 0 0 0 0-15H63v-25h8.5a7.5 7.5 0 0 0 0-15H63v-25h8.5a7.5 7.5 0 0 0 0-15H63v-25h8.5a7.5 7.5 0 0 0 0-15H63v-25h8.5a7.5 7.5 0 0 0 0-15H63v-25h8.5a7.5 7.5 0 0 0 0-15H63V79h8.5a7.5 7.5 0 0 0 0-15H63V31.5C63 22.402 70.402 15 79.5 15h288c9.098 0 16.5 7.402 16.5 16.5v400zM407.5 280H399v-33h17v24.5c0 4.687-3.813 8.5-8.5 8.5z"/></svg>